#!OML:ASF X:\für Bonn\!DataBase\2005_08_11_Bastian_Final\c3d\Bastian.ASF
:FULLY-SPECIFIED
:DEGREES
490
root 0.09558 2.02034 -1.11614 112.177 19.1892 -178.508
lowerback 58.7149 -10.5981 -12.4478
upperback 20.2928 -9.44663 -2.61095
thorax 2.92848 -0.737754 5.90878
lowerneck -2.89326 5.52027 -0.0917535
upperneck -14.9715 8.44264 0.591671
head -4.4722 4.49997 -0.0645641
rclavicle -8.94531e-014 6.36111e-014
rhumerus -24.501 -5.95847 -64.9306
rradius 99.9081
rwrist -196.089
rhand -14.7202 -4.14795
rfingers 7.12502
rthumb 11.4346 -33.8161
lclavicle -8.94531e-014 6.36111e-014
lhumerus 2.9616 -12.5993 59.6544
lradius 89.8487
lwrist 219.32
lhand -31.6123 18.5665
lfingers 7.12502
lthumb -4.87436 48.4904
rfemur -67.9416 -20.8797 41.197
rtibia 91.9539
rfoot 8.81572 -12.5074
rtoes 12.8636
lfemur -54.8245 4.34066 -5.63054
ltibia 69.6816
lfoot 19.235 -3.73999
ltoes -25.5184
491
root 0.0932795 2.02272 -1.11789 112.234 19.3934 -178.519
lowerback 58.5618 -10.543 -12.5872
upperback 20.1819 -9.57849 -2.52647
thorax 2.86243 -0.881456 6.10043
lowerneck -2.77378 5.66407 0.114111
upperneck -14.9532 8.60741 0.417471
head -4.46977 4.57246 -0.165031
rclavicle 6.40087e-014 4.77083e-015
rhumerus -24.0349 -6.05932 -65.3903
rradius 100.179
rwrist -195.567
rhand -14.0501 -4.77974
rfingers 7.12502
rthumb 12.0808 -34.411
lclavicle 6.40087e-014 4.77083e-015
lhumerus 2.35955 -12.5725 60.5246
lradius 90.4892
lwrist 219.397
lhand -31.5074 18.6668
lfingers 7.12502
lthumb -4.77306 48.593
rfemur -67.8143 -20.6714 41.2263
rtibia 91.6496
rfoot 8.82817 -12.646
rtoes 12.981
lfemur -54.7942 4.3456 -5.35798
ltibia 69.5404
lfoot 19.0531 -3.49995
ltoes -25.3468
492
root 0.0912511 2.02556 -1.11771 112.306 19.6402 -178.52
lowerback 58.4031 -10.4925 -12.7186
upperback 20.0771 -9.70859 -2.42648
thorax 2.80583 -1.02647 6.30526
lowerneck -2.67927 5.8178 0.237267
upperneck -14.9045 8.78849 0.288588
head -4.45745 4.65529 -0.235377
rclavicle -1.43125e-013 -3.18055e-015
rhumerus -23.5236 -6.14394 -65.8416
rradius 100.356
rwrist -195.169
rhand -13.5488 -5.42979
rfingers 7.12502
rthumb 12.5642 -35.032
lclavicle -1.43125e-013 -3.18055e-015
lhumerus 1.85488 -12.6011 61.3031
lradius 91.184
lwrist 219.381
lhand -31.2994 18.7601
lfingers 7.12502
lthumb -4.57228 48.6908
rfemur -67.6812 -20.4524 41.3103
rtibia 91.348
rfoot 8.85656 -12.7834
rtoes 12.5739
lfemur -54.7792 4.38218 -5.03696
ltibia 69.4197
lfoot 18.9276 -3.21721
ltoes -25.0833
493
root 0.089917 2.02827 -1.11759 112.374 19.8698 -178.507
lowerback 58.2666 -10.451 -12.852
upperback 19.9759 -9.84284 -2.33585
thorax 2.75261 -1.16781 6.50176
lowerneck -2.58218 5.96161 0.404395
upperneck -14.8695 8.95652 0.143435
head -4.44704 4.73064 -0.31835
rclavicle 8.98507e-014 -1.59028e-013
rhumerus -23.0032 -6.20932 -66.3051
rradius 100.447
rwrist -194.785
rhand -13.1157 -6.0914
rfingers 7.12502
rthumb 12.9817 -35.6675
lclavicle 8.98507e-014 -1.59028e-013
lhumerus 1.45349 -12.655 62.0052
lradius 91.956
lwrist 219.158
lhand -31.1274 18.7532
lfingers 7.12502
lthumb -4.40615 48.6873
rfemur -67.55 -20.2501 41.3956
rtibia 91.0463
rfoot 8.90997 -12.9666
rtoes 11.8513
lfemur -54.7617 4.4141 -4.72517
ltibia 69.3079
lfoot 18.8772 -2.90082
ltoes -24.5148
494
root 0.0894638 2.03148 -1.11814 112.445 20.0924 -178.534
lowerback 58.0883 -10.3936 -13.01
upperback 19.8806 -9.97467 -2.25961
thorax 2.71186 -1.31243 6.6927
lowerneck -2.48392 6.10375 0.524348
upperneck -14.8225 9.12775 0.0527924
head -4.43754 4.80747 -0.375362
rclavicle -8.07066e-014 4.92986e-014
rhumerus -22.5132 -6.23157 -66.7786
rradius 100.501
rwrist -194.45
rhand -12.7621 -6.58338
rfingers 7.12502
rthumb 13.3225 -36.1375
lclavicle -8.07066e-014 4.92986e-014
lhumerus 1.16539 -12.8234 62.5031
lradius 92.8177
lwrist 218.947
lhand -30.8927 18.5799
lfingers 7.12502
lthumb -4.17954 48.5186
rfemur -67.4469 -20.0326 41.4778
rtibia 90.7725
rfoot 8.99176 -13.1127
rtoes 10.8917
lfemur -54.7376 4.47713 -4.41725
ltibia 69.1886
lfoot 18.8891 -2.40674
ltoes -23.2412
495
root 0.0887828 2.03452 -1.11862 112.53 20.328 -178.532
lowerback 57.9246 -10.3561 -13.1533
upperback 19.7821 -10.1192 -2.16927
thorax 2.66923 -1.46212 6.89664
lowerneck -2.34181 6.24603 0.598543
upperneck -14.8235 9.30432 -0.0250126
head -4.45697 4.88879 -0.424313
rclavicle -3.61788e-014 3.18055e-015
rhumerus -22.001 -6.19337 -67.2489
rradius 100.423
rwrist -194.223
rhand -12.4373 -6.95979
rfingers 7.12502
rthumb 13.6356 -36.4932
lclavicle -3.61788e-014 3.18055e-015
lhumerus 1.00115 -13.1539 62.818
lradius 93.6411
lwrist 218.797
lhand -30.4643 18.4149
lfingers 7.12502
lthumb -3.76584 48.3614
rfemur -67.3656 -19.8601 41.6178
rtibia 90.5076
rfoot 9.16972 -13.2203
rtoes 9.78088
lfemur -54.7211 4.55342 -4.09722
ltibia 69.0585
lfoot 18.9156 -1.99227
ltoes -22.1898
496
root 0.089087 2.03761 -1.12044 112.609 20.5448 -178.544
lowerback 57.7618 -10.3103 -13.3134
upperback 19.6781 -10.2626 -2.07734
thorax 2.62485 -1.61224 7.10874
lowerneck -2.23024 6.37948 0.654203
upperneck -14.7845 9.46933 -0.0724153
head -4.45829 4.96392 -0.457365
rclavicle -7.99114e-014 6.99722e-014
rhumerus -21.515 -6.1017 -67.6616
rradius 100.275
rwrist -194.096
rhand -12.1221 -7.34519
rfingers 7.12502
rthumb 13.9393 -36.8579
lclavicle -7.99114e-014 6.99722e-014
lhumerus 1.02176 -13.6373 62.9667
lradius 94.3161
lwrist 218.725
lhand -29.9919 18.3344
lfingers 7.12502
lthumb -3.30966 48.2885
rfemur -67.2972 -19.6868 41.7418
rtibia 90.2742
rfoot 9.37795 -13.2701
rtoes 8.73725
lfemur -54.6957 4.66051 -3.80232
ltibia 68.9238
lfoot 18.9307 -1.58383
ltoes -21.0895
497
root 0.0894923 2.04095 -1.12105 112.714 20.764 -178.538
lowerback 57.5961 -10.2803 -13.4662
upperback 19.5725 -10.4213 -1.99031
thorax 2.58021 -1.76889 7.31732
lowerneck -2.11994 6.5247 0.722876
upperneck -14.7541 9.65144 -0.124382
head -4.46135 5.0474 -0.494865
rclavicle -7.95139e-016 4.92986e-014
rhumerus -21.0721 -5.97074 -68.1011
rradius 100.062
rwrist -193.999
rhand -11.7815 -7.67724
rfingers 7.12502
rthumb 14.2676 -37.1671
lclavicle -7.95139e-016 4.92986e-014
lhumerus 1.19085 -14.2074 62.9557
lradius 94.8521
lwrist 218.684
lhand -29.4765 18.2901
lfingers 7.12502
lthumb -2.81188 48.2513
rfemur -67.2621 -19.5379 41.8975
rtibia 90.0593
rfoot 9.59525 -13.2946
rtoes 8.12371
lfemur -54.6912 4.76556 -3.48774
ltibia 68.786
lfoot 18.9032 -1.22653
ltoes -20.2551
498
root 0.0901828 2.0442 -1.1232 112.845 20.9784 -178.543
lowerback 57.3921 -10.2433 -13.6372
upperback 19.4684 -10.5795 -1.86982
thorax 2.55107 -1.93502 7.56993
lowerneck -2.01009 6.6624 0.675859
upperneck -14.726 9.82503 -0.146207
head -4.4732 5.13109 -0.503551
rclavicle 1.49089e-013 -3.33958e-014
rhumerus -20.6424 -5.76404 -68.4342
rradius 99.7782
rwrist -193.877
rhand -11.4605 -8.02465
rfingers 7.12502
rthumb 14.5768 -37.4924
lclavicle 1.49089e-013 -3.33958e-014
lhumerus 1.5647 -14.7938 62.9145
lradius 95.2027
lwrist 218.599
lhand -29.0056 18.3916
lfingers 7.12502
lthumb -2.35709 48.3584
rfemur -67.2822 -19.4061 42.0907
rtibia 89.8667
rfoot 9.82611 -13.2363
rtoes 7.65383
lfemur -54.7252 4.91535 -3.18689
ltibia 68.6522
lfoot 18.8463 -0.976094
ltoes -19.7424
499
root 0.0915233 2.04725 -1.12519 112.982 21.199 -178.537
lowerback 57.1826 -10.2169 -13.7951
upperback 19.3702 -10.741 -1.77191
thorax 2.5249 -2.09788 7.7936
lowerneck -1.91199 6.81158 0.721227
upperneck -14.666 10.0104 -0.190513
head -4.46445 5.21677 -0.533393
rclavicle -1.19271e-014 -2.38542e-014
rhumerus -20.246 -5.57515 -68.7972
rradius 99.4187
rwrist -193.803
rhand -11.2148 -8.37644
rfingers 7.12502
rthumb 14.8135 -37.827
lclavicle -1.19271e-014 -2.38542e-014
lhumerus 2.1191 -15.365 62.7663
lradius 95.41
lwrist 218.563
lhand -28.6891 18.5247
lfingers 7.12502
lthumb -2.0514 48.4946
rfemur -67.3115 -19.2697 42.308
rtibia 89.6923
rfoot 10.041 -13.1743
rtoes 7.40173
lfemur -54.7478 5.04904 -2.85475
ltibia 68.5124
lfoot 18.7713 -0.737938
ltoes -19.1305
500
root 0.0928882 2.05076 -1.12559 113.115 21.3973 -178.554
lowerback 56.9852 -10.1985 -13.9735
upperback 19.2497 -10.9336 -1.68675
thorax 2.48047 -2.27678 8.0211
lowerneck -1.76963 6.96515 0.723818
upperneck -14.6363 10.2047 -0.218537
head -4.47871 5.30769 -0.554579
rclavicle 7.11649e-014 -1.59028e-014
rhumerus -19.9047 -5.33666 -69.1187
rradius 99.0225
rwrist -193.687
rhand -11.0434 -8.76942
rfingers 7.12502
rthumb 14.9787 -38.2077
lclavicle 7.11649e-014 -1.59028e-014
lhumerus 2.71579 -15.8724 62.5669
lradius 95.5703
lwrist 218.413
lhand -28.4156 18.8156
lfingers 7.12502
lthumb -1.78727 48.7879
rfemur -67.3608 -19.161 42.5235
rtibia 89.5326
rfoot 10.2509 -13.073
rtoes 7.35349
lfemur -54.7691 5.21539 -2.54945
ltibia 68.3672
lfoot 18.6826 -0.595855
ltoes -18.8369
